<?xml version="1.0" encoding="UTF-8" standalone="no"?>
<!-- Generated by graphviz version 14.0.0 (0)
 -->

<!-- Pages: 1 -->

<svg
   width="1422.9965pt"
   height="573.25pt"
   viewBox="0 0 1422.9964 573.24999"
   version="1.1"
   id="svg91"
   sodipodi:docname="bundle_of_gender_identity-simplified.svg"
   inkscape:version="1.4.3 (0d15f75042, 2025-12-25)"
   inkscape:export-filename="bundle_of_gender_identity-simplified.pdf"
   inkscape:export-xdpi="96"
   inkscape:export-ydpi="96"
   xmlns:inkscape="http://www.inkscape.org/namespaces/inkscape"
   xmlns:sodipodi="http://sodipodi.sourceforge.net/DTD/sodipodi-0.dtd"
   xmlns="http://www.w3.org/2000/svg"
   xmlns:svg="http://www.w3.org/2000/svg">
  <defs
     id="defs91" />
  <sodipodi:namedview
     id="namedview91"
     pagecolor="#ffffff"
     bordercolor="#000000"
     borderopacity="0.25"
     inkscape:showpageshadow="2"
     inkscape:pageopacity="0.0"
     inkscape:pagecheckerboard="0"
     inkscape:deskcolor="#d1d1d1"
     inkscape:document-units="pt"
     inkscape:zoom="0.23239009"
     inkscape:cx="311.97544"
     inkscape:cy="722.92239"
     inkscape:window-width="1646"
     inkscape:window-height="951"
     inkscape:window-x="0"
     inkscape:window-y="0"
     inkscape:window-maximized="1"
     inkscape:current-layer="graph0" />
  <g
     id="graph0"
     class="graph"
     transform="translate(-94.303516,615.5)">
    <g
       id="clust2"
       class="cluster"
       transform="translate(0,-21)">
      <title
         id="title2">cluster_gender</title>
      <polygon
         fill="#d3d3d3"
         stroke="#d3d3d3"
         points="69.12,-457.5 69.12,-537 1105.12,-537 1105.12,-457.5 "
         id="polygon3"
         transform="matrix(0.97519829,0,0,1.1428486,27.385409,75.237514)" />
      <text
         xml:space="preserve"
         text-anchor="middle"
         x="587.12"
         y="-521.70001"
         font-family="'Noto Sans'"
         font-size="14px"
         id="text3">Gender Identity</text>
    </g>
    <!-- n_learn -->
    <!-- tv_series -->
    <g
       id="node28"
       class="node">
      <title
         id="title4">tv_series</title>
      <path
         fill="none"
         stroke="#000000"
         d="m 1239.88,-357 c 0,0 -95.5,0 -95.5,0 -6,0 -12,6 -12,12 0,0 0,18.5 0,18.5 0,6 6,12 12,12 0,0 95.5,0 95.5,0 6,0 12,-6 12,-12 0,0 0,-18.5 0,-18.5 0,-6 -6,-12 -12,-12"
         id="path4" />
      <text
         xml:space="preserve"
         text-anchor="middle"
         x="1192.12"
         y="-341.60001"
         font-family="'Noto Sans'"
         font-size="12px"
         id="text5">Imitating “Girls’</text>
      <text
         xml:space="preserve"
         text-anchor="middle"
         x="1192.12"
         y="-324.35001"
         font-family="'Noto Sans'"
         font-size="12px"
         id="text6">Behaviour” from TV</text>
    </g>
    <!-- n_learn&#45;&gt;tv_series -->
    <!-- n_personality -->
    <!-- ph03 -->
    <!-- n_personality&#45;&gt;ph03 -->
    <!-- g_name -->
    <g
       id="node9"
       class="node"
       transform="translate(144)">
      <title
         id="title8">g_name</title>
      <polygon
         fill="#ffffff"
         stroke="#ffffff"
         points="433.38,-529 433.38,-493 576.88,-493 576.88,-529 "
         id="polygon8" />
      <text
         xml:space="preserve"
         text-anchor="middle"
         x="505.12"
         y="-508.23001"
         font-family="'Noto Sans'"
         font-size="12px"
         id="text8">Internalisation (Name)</text>
    </g>
    <!-- n_personality&#45;&gt;g_name -->
    <g
       id="edge18"
       class="edge"
       transform="rotate(8.0185747,556.61868,662.40462)">
      <title
         id="title9">n_personality-&gt;g_name</title>
      <path
         fill="none"
         stroke="#000000"
         d="M 635.57,-75.39 C 549.00055,-132.91908 455.54641,-361.06635 478.4,-483.59"
         id="path9"
         sodipodi:nodetypes="cc" />
      <polygon
         fill="#000000"
         stroke="#000000"
         points="490.4,-491.51 487.16,-481.43 481.58,-485.66 "
         id="polygon9"
         transform="rotate(-25.446608,486.26576,-468.33143)" />
    </g>
    <!-- bullying -->
    <g
       id="node17"
       class="node">
      <title
         id="title10">bullying</title>
      <path
         fill="none"
         stroke="#000000"
         d="m 864.25,-168.75 c 0,0 -114.25,0 -114.25,0 -6,0 -12,6 -12,12 0,0 0,12 0,12 0,6 6,12 12,12 0,0 114.25,0 114.25,0 6,0 12,-6 12,-12 0,0 0,-12 0,-12 0,-6 -6,-12 -12,-12"
         id="path10" />
      <text
         xml:space="preserve"
         text-anchor="middle"
         x="807.12"
         y="-147.97"
         font-family="'Noto Sans'"
         font-size="12px"
         id="text10">Mockery and Bullying</text>
    </g>
    <!-- n_personality&#45;&gt;bullying -->
    <g
       id="edge20"
       class="edge">
      <title
         id="title11">n_personality-&gt;bullying</title>
      <path
         fill="none"
         stroke="#000000"
         d="m 815.15,-79.74 c -1.36,-11.83 -3.19,-27.81 -4.76,-41.51"
         id="path11" />
      <polygon
         fill="#000000"
         stroke="#000000"
         points="806.93,-120.71 809.27,-131.04 813.88,-121.51 "
         id="polygon11" />
    </g>
    <!-- rationality -->
    <g
       id="node19"
       class="node"
       transform="translate(-60)">
      <title
         id="title12">rationality</title>
      <path
         fill="none"
         stroke="#000000"
         d="m 1415,-264.25 h -70.75 c -6,0 -12,6 -12,12 v 18 c 0,6 6,12 12,12 H 1415 c 6,0 12,-6 12,-12 v -18 c 0,-6 -6,-12 -12,-12"
         id="path12"
         sodipodi:nodetypes="csssssssc" />
      <text
         xml:space="preserve"
         text-anchor="middle"
         x="1378.12"
         y="-246.47"
         font-family="'Noto Sans'"
         font-size="12px"
         id="text12"><tspan
           sodipodi:role="line"
           id="tspan5"
           x="1378.12"
           y="-246.47">Rationalism as</tspan><tspan
           sodipodi:role="line"
           id="tspan6"
           x="1378.12"
           y="-231.47">my sanctuary</tspan></text>
    </g>
    <!-- n_personality&#45;&gt;rationality -->
    <g
       id="edge24"
       class="edge"
       transform="translate(-52.270149,2.5141613)">
      <title
         id="title13">n_personality-&gt;rationality</title>
      <path
         fill="none"
         stroke="#000000"
         d="M 925.37398,-75.49 C 1107.3305,-102.39101 1207.8863,-125.38385 1351.81,-217.67"
         id="path13"
         sodipodi:nodetypes="cc" />
      <polygon
         fill="#000000"
         stroke="#000000"
         points="1358.93,-224.06 1353.82,-214.78 1349.15,-219.99 "
         id="polygon13" />
    </g>
    <!-- introversion -->
    <g
       id="node26"
       class="node">
      <title
         id="title14">introversion</title>
      <path
         fill="none"
         stroke="#000000"
         d="m 1077.62,-353.75 c 0,0 -61,0 -61,0 -6,0 -12,6 -12,12 0,0 0,12 0,12 0,6 6,12 12,12 0,0 61,0 61,0 6,0 12,-6 12,-12 0,0 0,-12 0,-12 0,-6 -6,-12 -12,-12"
         id="path14" />
      <text
         xml:space="preserve"
         text-anchor="middle"
         x="1047.12"
         y="-332.98001"
         font-family="'Noto Sans'"
         font-size="12px"
         id="text14">Introversion</text>
    </g>
    <!-- n_personality&#45;&gt;introversion -->
    <g
       id="edge27"
       class="edge">
      <title
         id="title15">n_personality-&gt;introversion</title>
      <path
         fill="none"
         stroke="#000000"
         d="m 861.65,-79.93 c 96.79618,-42.38411 141.1711,-131.4053 176.22,-226.64"
         id="path15"
         sodipodi:nodetypes="cc" />
      <polygon
         fill="#000000"
         stroke="#000000"
         points="1034.5,-307.56 1041.09,-315.86 1041.12,-305.26 "
         id="polygon15" />
    </g>
    <!-- n_personality&#45;&gt;tv_series -->
    <g
       id="edge16"
       class="edge">
      <title
         id="title16">n_personality-&gt;tv_series</title>
      <path
         fill="none"
         stroke="#000000"
         d="m 867.38,-79.88 c 127.80447,-35.01992 219.7026,-125.1879 301.86,-225.39"
         id="path16"
         sodipodi:nodetypes="cc" />
      <polygon
         fill="#000000"
         stroke="#000000"
         points="1166.47,-307.42 1175.44,-313.05 1171.94,-303.05 "
         id="polygon16" />
    </g>
    <!-- toys -->
    <g
       id="node29"
       class="node">
      <title
         id="title17">toys</title>
      <path
         fill="none"
         stroke="#000000"
         d="m 949.62,-353.75 c 0,0 -91,0 -91,0 -6,0 -12,6 -12,12 0,0 0,12 0,12 0,6 6,12 12,12 0,0 91,0 91,0 6,0 12,-6 12,-12 0,0 0,-12 0,-12 0,-6 -6,-12 -12,-12"
         id="path17" />
      <text
         xml:space="preserve"
         text-anchor="middle"
         x="904.12"
         y="-332.98001"
         font-family="'Noto Sans'"
         font-size="12px"
         id="text17">Loving Stuffed Toys</text>
    </g>
    <!-- n_personality&#45;&gt;toys -->
    <g
       id="edge17"
       class="edge">
      <title
         id="title18">n_personality-&gt;toys</title>
      <path
         fill="none"
         stroke="#000000"
         d="m 849.52,-79.99 c 78.68826,-49.65233 74.60157,-143.70144 60.81,-226.31"
         id="path18"
         sodipodi:nodetypes="cc" />
      <polygon
         fill="#000000"
         stroke="#000000"
         points="906.93,-305.43 908.46,-315.92 913.8,-306.77 "
         id="polygon18" />
    </g>
    <g
       id="edge17-0"
       class="edge"
       transform="matrix(-0.94419893,0.32937575,0.32937575,0.94419893,1444.3032,-406.04258)">
      <title
         id="title18-9">n_personality-&gt;toys</title>
      <path
         fill="none"
         stroke="#000000"
         d="M 747.39376,-0.50473489 C 781.80196,-18.129465 904.27055,-234.80889 910.22885,-306.88746"
         id="path18-1"
         sodipodi:nodetypes="cc" />
      <polygon
         fill="#000000"
         stroke="#000000"
         points="908.46,-315.92 913.8,-306.77 906.93,-305.43 "
         id="polygon18-7"
         transform="rotate(18.762934,913.83512,-307.1857)" />
    </g>
    <!-- play_with_girls -->
    <g
       id="node31"
       class="node">
      <title
         id="title19">play_with_girls</title>
      <path
         fill="none"
         stroke="#000000"
         d="m 877.25,-443 c 0,0 -90.25,0 -90.25,0 -6,0 -12,6 -12,12 0,0 0,12 0,12 0,6 6,12 12,12 0,0 90.25,0 90.25,0 6,0 12,-6 12,-12 0,0 0,-12 0,-12 0,-6 -6,-12 -12,-12"
         id="path19" />
      <text
         xml:space="preserve"
         text-anchor="middle"
         x="832.12"
         y="-422.23001"
         font-family="'Noto Sans'"
         font-size="12px"
         id="text19">Playing with Girls</text>
    </g>
    <!-- n_personality&#45;&gt;play_with_girls -->
    <g
       id="edge32"
       class="edge">
      <title
         id="title20">n_personality-&gt;play_with_girls</title>
      <path
         fill="none"
         stroke="#000000"
         d="m 755.02,-79.87 c -68.92071,-62.11511 -29.96752,-232.18478 34.06163,-317.93084"
         id="path20"
         sodipodi:nodetypes="cc" />
    </g>
    <!-- n_sex -->
    <!-- ph02 -->
    <!-- n_sex&#45;&gt;ph02 -->
    <!-- fetish -->
    <!-- n_sex&#45;&gt;fetish -->
    <!-- sex_orie -->
    <!-- n_sex&#45;&gt;sex_orie -->
    <!-- n_neuro_aes -->
    <g
       id="node4"
       class="node"
       transform="translate(120)">
      <title
         id="title26">n_neuro_aes</title>
      <polygon
         fill="#ffffff"
         stroke="#ffffff"
         points="393.5,-79.5 256.75,-79.5 256.75,-43.5 393.5,-43.5 "
         id="polygon26" />
      <text
         xml:space="preserve"
         text-anchor="middle"
         x="325.12"
         y="-58.73"
         font-family="'Noto Sans'"
         font-size="12px"
         id="text26" />
    </g>
    <!-- ph01 -->
    <!-- n_neuro_aes&#45;&gt;ph01 -->
    <!-- aes -->
    <g
       id="node18"
       class="node"
       transform="translate(189)">
      <title
         id="title27">aes</title>
      <path
         fill="none"
         stroke="#000000"
         d="m 178.38,-261.25 c 0,0 -80.5,0 -80.5,0 -6,0 -12,6 -12,12 0,0 0,12 0,12 0,6 6,12 12,12 0,0 80.5,0 80.5,0 6,0 12,-6 12,-12 0,0 0,-12 0,-12 0,-6 -6,-12 -12,-12"
         id="path27" />
      <text
         xml:space="preserve"
         text-anchor="middle"
         x="138.12"
         y="-240.47"
         font-family="'Noto Sans'"
         font-size="12px"
         id="text27">Aesthetic Views</text>
    </g>
    <g
       id="node18-1"
       class="node"
       transform="translate(329.52232,-0.50001)">
      <title
         id="title27-1">aes</title>
      <path
         fill="none"
         stroke="#000000"
         d="M 224.88,-261.25 H 84.38 c -6,0 -12,6 -12,12 v 12 c 0,6 6,12 12,12 h 140.5 c 6,0 12,-6 12,-12 v -12 c 0,-6 -6,-12 -12,-12"
         id="path27-5"
         sodipodi:nodetypes="csssssssc" />
      <text
         xml:space="preserve"
         text-anchor="middle"
         x="153.12"
         y="-240.47"
         font-family="'Noto Sans'"
         font-size="12px"
         id="text27-9">Other psychological stress</text>
    </g>
    <!-- n_neuro_aes&#45;&gt;aes -->
    <g
       id="edge41"
       class="edge"
       transform="translate(180)">
      <title
         id="title28">n_neuro_aes-&gt;aes</title>
      <path
         fill="none"
         stroke="#000000"
         d="m 303.48,-79.84 c -16.17,-13.19 -38.63,-32.03 -57.36,-49.66 -30.45,-28.66 -63.42,-63.73 -84.82,-87.07"
         id="path28" />
      <polygon
         fill="#000000"
         stroke="#000000"
         points="154.72,-223.79 164.04,-218.76 158.87,-214.04 "
         id="polygon28" />
    </g>
    <!-- ph01&#45;&gt;n_sex -->
    <!-- ph02&#45;&gt;n_personality -->
    <!-- ph03&#45;&gt;n_learn -->
    <!-- g_behaviour -->
    <g
       id="node8"
       class="node"
       transform="translate(-18)">
      <title
         id="title29">g_behaviour</title>
      <polygon
         fill="#ffffff"
         stroke="#ffffff"
         points="929.38,-529 929.38,-493 1096.88,-493 1096.88,-529 "
         id="polygon29" />
      <text
         xml:space="preserve"
         text-anchor="middle"
         x="1013.12"
         y="-508.23001"
         font-family="'Noto Sans'"
         font-size="12px"
         id="text29">Internalisation (Behaviour)</text>
    </g>
    <!-- g_identity -->
    <g
       id="node10"
       class="node"
       transform="translate(105)">
      <title
         id="title30">g_identity</title>
      <polygon
         fill="#ffffff"
         stroke="#ffffff"
         points="772.75,-529 619.5,-529 619.5,-493 772.75,-493 "
         id="polygon30"
         transform="translate(15)" />
      <text
         xml:space="preserve"
         text-anchor="middle"
         x="711.12"
         y="-508.23001"
         font-family="'Noto Sans'"
         font-size="12px"
         id="text30">Internalisation (Identity)</text>
    </g>
    <!-- g_name&#45;&gt;g_identity -->
    <!-- ph10 -->
    <!-- g_identity&#45;&gt;ph10 -->
    <!-- analysis -->
    <g
       id="node38"
       class="node"
       transform="translate(-60)">
      <title
         id="title31">analysis</title>
      <path
         fill="none"
         stroke="#000000"
         d="m 1435.38,-615 c 0,0 -62.5,0 -62.5,0 -6,0 -12,6 -12,12 0,0 0,12 0,12 0,6 6,12 12,12 0,0 62.5,0 62.5,0 6,0 12,-6 12,-12 0,0 0,-12 0,-12 0,-6 -6,-12 -12,-12"
         id="path31" />
      <text
         xml:space="preserve"
         text-anchor="middle"
         x="1404.12"
         y="-594.22998"
         font-family="'Noto Sans'"
         font-size="12px"
         id="text31">Self-Analysis</text>
    </g>
    <!-- g_identity&#45;&gt;analysis -->
    <g
       id="edge64"
       class="edge"
       transform="translate(-60)">
      <title
         id="title32">g_identity-&gt;analysis</title>
      <path
         fill="none"
         stroke="#000000"
         d="m 1165.3013,-559.5 c 51.4954,-24.02824 101.8964,-32.13644 183.8587,-33.96"
         id="path32"
         sodipodi:nodetypes="cc" />
      <polygon
         fill="#000000"
         stroke="#000000"
         points="1359.12,-593.96 1349.31,-589.96 1348.95,-596.95 "
         id="polygon32" />
    </g>
    <!-- g_body_func -->
    <g
       id="node11"
       class="node"
       transform="translate(168)">
      <title
         id="title33">g_body_func</title>
      <polygon
         fill="#ffffff"
         stroke="#ffffff"
         points="390,-493 390,-529 256.25,-529 256.25,-493 "
         id="polygon33" />
      <text
         xml:space="preserve"
         text-anchor="middle"
         x="323.12"
         y="-508.23001"
         font-family="'Noto Sans'"
         font-size="12px"
         id="text33">Body Dysphoria</text>
    </g>
    <!-- g_body_func&#45;&gt;g_name -->
    <!-- g_body_aes -->
    <g
       id="node12"
       class="node"
       transform="translate(192)">
      <title
         id="title34">g_body_aes</title>
      <polygon
         fill="#ffffff"
         stroke="#ffffff"
         points="213.5,-493 213.5,-529 76.75,-529 76.75,-493 "
         id="polygon34" />
      <text
         xml:space="preserve"
         text-anchor="middle"
         x="145.12"
         y="-508.23001"
         font-family="'Noto Sans'"
         font-size="12px"
         id="text34">Body Envy (Aesthetic)</text>
    </g>
    <!-- g_body_aes&#45;&gt;g_body_func -->
    <!-- ph10&#45;&gt;g_behaviour -->
    <!-- girls_shoes -->
    <g
       id="node14"
       class="node"
       transform="translate(105)">
      <title
         id="title35">girls_shoes</title>
      <path
         fill="none"
         stroke="#000000"
         d="m 500.5,-168.75 c 0,0 -58.75,0 -58.75,0 -6,0 -12,6 -12,12 0,0 0,12 0,12 0,6 6,12 12,12 0,0 58.75,0 58.75,0 6,0 12,-6 12,-12 0,0 0,-12 0,-12 0,-6 -6,-12 -12,-12"
         id="path35" />
      <text
         xml:space="preserve"
         text-anchor="middle"
         x="471.12"
         y="-147.97"
         font-family="'Noto Sans'"
         font-size="12px"
         id="text35">Girls' Shoes</text>
    </g>
    <!-- girls_shoes&#45;&gt;bullying -->
    <g
       id="edge21"
       class="edge">
      <title
         id="title36">girls_shoes-&gt;bullying</title>
      <path
         fill="none"
         stroke="#000000"
         d="M 617.8,-150.75 H 726.15"
         id="path36"
         sodipodi:nodetypes="cc" />
      <polygon
         fill="#000000"
         stroke="#000000"
         points="726.05,-154.25 736.05,-150.75 726.05,-147.25 "
         id="polygon36" />
    </g>
    <!-- girls_shoes&#45;&gt;fetish -->
    <!-- knowledge -->
    <g
       id="node15"
       class="node"
       transform="translate(-57)">
      <title
         id="title38">knowledge</title>
      <path
         fill="none"
         stroke="#000000"
         d="m 1527.12,-172 c 0,0 -88,0 -88,0 -6,0 -12,6 -12,12 0,0 0,18.5 0,18.5 0,6 6,12 12,12 0,0 88,0 88,0 6,0 12,-6 12,-12 0,0 0,-18.5 0,-18.5 0,-6 -6,-12 -12,-12"
         id="path38" />
      <text
         xml:space="preserve"
         text-anchor="middle"
         x="1483.12"
         y="-156.60001"
         font-family="'Noto Sans'"
         font-size="12px"
         id="text38">Math, Science and</text>
      <text
         xml:space="preserve"
         text-anchor="middle"
         x="1483.12"
         y="-139.35001"
         font-family="'Noto Sans'"
         font-size="12px"
         id="text39">Logic Knowledge</text>
    </g>
    <!-- knowledge&#45;&gt;rationality -->
    <g
       id="edge26"
       class="edge"
       transform="translate(-60,2.6060819)">
      <title
         id="title39">knowledge-&gt;rationality</title>
      <path
         fill="none"
         stroke="#000000"
         d="m 1453.3,-175.29 c -15.52,-13.37 -29.86,-27.91 -46.3,-42.07"
         id="path39"
         sodipodi:nodetypes="cc" />
      <polygon
         fill="#000000"
         stroke="#000000"
         points="1404.76,-214.67 1399.47,-223.85 1409.33,-219.98 "
         id="polygon39" />
    </g>
    <!-- enlightenment -->
    <!-- knowledge&#45;&gt;enlightenment -->
    <!-- construct_aes -->
    <g
       id="node16"
       class="node"
       transform="translate(189)">
      <title
         id="title42">construct_aes</title>
      <path
         fill="none"
         stroke="#000000"
         d="m 114.25,-172 c 0,0 -102.25,0 -102.25,0 -6,0 -12,6 -12,12 0,0 0,18.5 0,18.5 0,6 6,12 12,12 0,0 102.25,0 102.25,0 6,0 12,-6 12,-12 0,0 0,-18.5 0,-18.5 0,-6 -6,-12 -12,-12"
         id="path42" />
      <text
         xml:space="preserve"
         text-anchor="middle"
         x="63.119999"
         y="-156.60001"
         font-family="'Noto Sans'"
         font-size="12px"
         id="text42">Social Construction</text>
      <text
         xml:space="preserve"
         text-anchor="middle"
         x="63.119999"
         y="-139.35001"
         font-family="'Noto Sans'"
         font-size="12px"
         id="text43">of Aesthetics</text>
    </g>
    <!-- construct_aes&#45;&gt;aes -->
    <g
       id="edge42"
       class="edge"
       transform="translate(189)">
      <title
         id="title43">construct_aes-&gt;aes</title>
      <path
         fill="none"
         stroke="#000000"
         d="m 80.14,-172.29 c 10.78,-13 24.82,-29.94 36.38,-43.89"
         id="path43" />
      <polygon
         fill="#000000"
         stroke="#000000"
         points="122.73,-223.68 119.05,-213.74 113.66,-218.21 "
         id="polygon43" />
    </g>
    <!-- bullying&#45;&gt;rationality -->
    <g
       id="edge60"
       class="edge"
       transform="translate(-63.529407,-1.7854031)">
      <title
         id="title44">bullying-&gt;rationality</title>
      <path
         fill="none"
         stroke="#000000"
         d="M 930.74102,-167.13255 C 1046.331,-185.45255 1221.55,-217.43 1325.15,-233.85"
         id="path44"
         sodipodi:nodetypes="cc" />
      <polygon
         fill="#000000"
         stroke="#000000"
         points="1324.34,-237.27 1334.76,-235.38 1325.43,-230.35 "
         id="polygon44" />
    </g>
    <!-- bullying&#45;&gt;fetish -->
    <!-- bullying&#45;&gt;introversion -->
    <g
       id="edge59"
       class="edge">
      <title
         id="title46">bullying-&gt;introversion</title>
      <path
         fill="none"
         stroke="#000000"
         d="m 838.62,-175.76 c 45.94,-35.03 130.86,-99.79 176.88,-134.88"
         id="path46" />
      <polygon
         fill="#000000"
         stroke="#000000"
         points="840.98,-173.16 830.91,-169.88 836.74,-178.73 "
         id="polygon46" />
      <polygon
         fill="#000000"
         stroke="#000000"
         points="1013.15,-313.25 1023.23,-316.53 1017.4,-307.68 "
         id="polygon47" />
    </g>
    <!-- chain -->
    <g
       id="node30"
       class="node"
       transform="translate(25.5)">
      <title
         id="title47">chain</title>
      <path
         fill="none"
         stroke="#000000"
         d="m 704.38,-353.75 c 0,0 -80.5,0 -80.5,0 -6,0 -12,6 -12,12 0,0 0,12 0,12 0,6 6,12 12,12 0,0 80.5,0 80.5,0 6,0 12,-6 12,-12 0,0 0,-12 0,-12 0,-6 -6,-12 -12,-12"
         id="path47" />
      <text
         xml:space="preserve"
         text-anchor="middle"
         x="664.12"
         y="-332.98001"
         font-family="'Noto Sans'"
         font-size="12px"
         id="text47">Dream</text>
    </g>
    <g
       id="node30-1"
       class="node"
       transform="translate(24.02233,-88.871216)">
      <title
         id="title47-7">chain</title>
      <path
         fill="none"
         stroke="#000000"
         d="m 704.38,-353.75 c 0,0 -80.5,0 -80.5,0 -6,0 -12,6 -12,12 0,0 0,12 0,12 0,6 6,12 12,12 0,0 80.5,0 80.5,0 6,0 12,-6 12,-12 0,0 0,-12 0,-12 0,-6 -6,-12 -12,-12"
         id="path47-2" />
      <text
         xml:space="preserve"
         text-anchor="middle"
         x="664.12"
         y="-332.98001"
         font-family="'Noto Sans'"
         font-size="12px"
         id="text47-7">Girls’ bathroom</text>
    </g>
    <!-- bullying&#45;&gt;chain -->
    <g
       id="edge22"
       class="edge"
       transform="translate(12)">
      <title
         id="title48">bullying-&gt;chain</title>
      <path
         fill="none"
         stroke="#000000"
         d="m 753.38,-169.22 c -25.87,-11.03 -38.17,-27.98 -55.26,-52.78 -16.98,-24.65 -19.47,-59.59 -18.67,-84.02"
         id="path48"
         sodipodi:nodetypes="ccc" />
      <polygon
         fill="#000000"
         stroke="#000000"
         points="657.95,-306.1 662,-315.89 664.94,-305.71 "
         id="polygon48"
         transform="translate(18)" />
    </g>
    <!-- aes&#45;&gt;g_body_aes -->
    <g
       id="edge46"
       class="edge"
       transform="translate(189)">
      <title
         id="title49">aes-&gt;g_body_aes</title>
      <path
         fill="none"
         stroke="#000000"
         d="m 138.58,-261.69 c 1.19,-44.87 4.34,-164.68 5.79,-219.81"
         id="path49" />
      <polygon
         fill="#000000"
         stroke="#000000"
         points="144.63,-491.33 147.87,-481.24 140.87,-481.43 "
         id="polygon49" />
    </g>
    <!-- aes&#45;&gt;sex_orie -->
    <!-- rationality&#45;&gt;enlightenment -->
    <!-- universal -->
    <!-- rationality&#45;&gt;universal -->
    <!-- rationality&#45;&gt;introversion -->
    <g
       id="edge61"
       class="edge"
       transform="matrix(0.78878654,0,0,1.0029785,219.93459,4.2809646)">
      <title
         id="title54">rationality-&gt;introversion</title>
      <path
         fill="none"
         stroke="#000000"
         d="m 1325.31,-257.33 c -54.02,-13.57 -140.25,-35.76 -214.19,-57.17 -3.3,-0.96 -6.7,-1.96 -10.12,-3"
         id="path54" />
      <polygon
         fill="#000000"
         stroke="#000000"
         points="1324.31,-253.97 1326.01,-260.76 1334.86,-254.94 "
         id="polygon54"
         transform="matrix(1.2439514,0,0,0.97673922,-327.76465,-5.9893304)" />
      <polygon
         fill="#000000"
         stroke="#000000"
         points="1102.1,-320.82 1100.05,-314.12 1091.52,-320.4 "
         id="polygon55"
         transform="matrix(1.3475368,0,0,0.96835267,-379.07587,-10.042435)" />
    </g>
    <!-- rationality&#45;&gt;analysis -->
    <g
       id="edge50"
       class="edge"
       transform="translate(-60)">
      <title
         id="title55">rationality-&gt;analysis</title>
      <path
         fill="none"
         stroke="#000000"
         d="m 1372.69,-264.65 c -29.8206,-100.36655 -7.3719,-205.33046 22.05,-303.24"
         id="path55"
         sodipodi:nodetypes="cc" />
      <polygon
         fill="#000000"
         stroke="#000000"
         points="1397.69,-577.15 1397.99,-566.56 1391.32,-568.69 "
         id="polygon56" />
    </g>
    <!-- hugo -->
    <!-- hugo&#45;&gt;universal -->
    <!-- behaviour_diff -->
    <g
       id="node22"
       class="node"
       transform="translate(31.5)">
      <title
         id="title58">behaviour_diff</title>
      <path
         fill="none"
         stroke="#000000"
         d="m 846.62,-264.5 c 0,0 -133,0 -133,0 -6,0 -12,6 -12,12 0,0 0,18.5 0,18.5 0,6 6,12 12,12 0,0 133,0 133,0 6,0 12,-6 12,-12 0,0 0,-18.5 0,-18.5 0,-6 -6,-12 -12,-12"
         id="path58" />
      <text
         xml:space="preserve"
         text-anchor="middle"
         x="780.12"
         y="-249.10001"
         font-family="'Noto Sans'"
         font-size="12px"
         id="text58">Behaviour Differences</text>
      <text
         xml:space="preserve"
         text-anchor="middle"
         x="780.12"
         y="-231.85001"
         font-family="'Noto Sans'"
         font-size="12px"
         id="text59">from Social Construct</text>
    </g>
    <!-- behaviour_diff&#45;&gt;play_with_girls -->
    <g
       id="edge36"
       class="edge">
      <title
         id="title59">behaviour_diff-&gt;play_with_girls</title>
      <path
         fill="none"
         stroke="#000000"
         d="m 786.09,-264.87 c 9.32,-32.2 27.34,-94.5 37.86,-130.86"
         id="path59" />
      <polygon
         fill="#000000"
         stroke="#000000"
         points="820.52,-396.47 826.66,-405.1 827.24,-394.53 "
         id="polygon59" />
    </g>
    <g
       id="edge36-7"
       class="edge"
       transform="matrix(-0.94051333,-0.3397568,-0.3397568,0.94051333,1101.8491,256.42711)">
      <title
         id="title59-6">behaviour_diff-&gt;play_with_girls</title>
      <path
         fill="none"
         stroke="#000000"
         d="m 786.7429,-266.67734 c 9.32,-32.2 26.83036,-93.08923 37.35036,-129.44923"
         id="path59-7"
         sodipodi:nodetypes="cc" />
      <polygon
         fill="#000000"
         stroke="#000000"
         points="827.24,-394.53 820.52,-396.47 826.66,-405.1 "
         id="polygon59-3" />
    </g>
    <!-- abolition -->
    <!-- enlightenment&#45;&gt;abolition -->
    <!-- enlightenment&#45;&gt;analysis -->
    <g
       id="edge57"
       class="edge"
       transform="translate(-60)">
      <title
         id="title62">enlightenment-&gt;analysis</title>
      <path
         fill="none"
         stroke="#000000"
         d="M 1480.6853,-173.25613 C 1474.4953,-219.10613 1415.14,-514.44 1408,-567.3"
         id="path62"
         sodipodi:nodetypes="cc" />
      <polygon
         fill="#000000"
         stroke="#000000"
         points="1406.69,-577.02 1411.49,-567.58 1404.56,-566.65 "
         id="polygon62" />
    </g>
    <!-- observation -->
    <g
       id="node24"
       class="node"
       transform="translate(-313.69997,-0.44068532)">
      <title
         id="title63">observation</title>
      <path
         fill="none"
         stroke="#000000"
         d="m 1818.5,-357 c 0,0 -76.75,0 -76.75,0 -6,0 -12,6 -12,12 0,0 0,18.5 0,18.5 0,6 6,12 12,12 0,0 76.75,0 76.75,0 6,0 12,-6 12,-12 0,0 0,-18.5 0,-18.5 0,-6 -6,-12 -12,-12"
         id="path63" />
      <text
         xml:space="preserve"
         text-anchor="middle"
         x="1780.12"
         y="-341.60001"
         font-family="'Noto Sans'"
         font-size="12px"
         id="text63">Observation of</text>
      <text
         xml:space="preserve"
         text-anchor="middle"
         x="1780.12"
         y="-324.35001"
         font-family="'Noto Sans'"
         font-size="12px"
         id="text64">Gender Norms</text>
    </g>
    <!-- observation&#45;&gt;abolition -->
    <!-- universal&#45;&gt;abolition -->
    <!-- universal&#45;&gt;analysis -->
    <g
       id="edge51"
       class="edge"
       transform="translate(-64.5)">
      <title
         id="title66">universal-&gt;analysis</title>
      <path
         fill="none"
         stroke="#000000"
         d="m 1531.5,-357.4 c -14.1842,-64.3555 -65.5102,-168.29447 -106.86,-212.49"
         id="path66"
         sodipodi:nodetypes="cc" />
      <polygon
         fill="#000000"
         stroke="#000000"
         points="1418.75,-577.48 1427.65,-571.72 1422.12,-567.43 "
         id="polygon66" />
    </g>
    <!-- introversion&#45;&gt;play_with_girls -->
    <g
       id="edge33"
       class="edge">
      <title
         id="title67">introversion-&gt;play_with_girls</title>
      <path
         fill="none"
         stroke="#000000"
         d="M 1007.13,-349.7 C 973,-363.55 922.11,-387.48 885.52,-402.33"
         id="path67"
         sodipodi:nodetypes="cc" />
      <polygon
         fill="#000000"
         stroke="#000000"
         points="884.39,-399.01 876.44,-406.01 887.03,-405.5 "
         id="polygon67" />
    </g>
    <!-- called_girlish -->
    <g
       id="node32"
       class="node"
       transform="translate(13.5)">
      <title
         id="title68">called_girlish</title>
      <path
         fill="none"
         stroke="#000000"
         d="m 1021.5,-443 c 0,0 -76.75,0 -76.75,0 -6,0 -12,6 -12,12 0,0 0,12 0,12 0,6 6,12 12,12 0,0 76.75,0 76.75,0 6,0 12,-6 12,-12 0,0 0,-12 0,-12 0,-6 -6,-12 -12,-12"
         id="path68" />
      <text
         xml:space="preserve"
         text-anchor="middle"
         x="983.12"
         y="-429.73001"
         font-family="'Noto Sans'"
         font-size="12px"
         id="text68"><tspan
           sodipodi:role="line"
           id="tspan1"
           x="983.12"
           y="-429.73001">Being </tspan><tspan
           sodipodi:role="line"
           id="tspan2"
           x="983.12"
           y="-414.73001">Called “Girlish”</tspan></text>
    </g>
    <!-- introversion&#45;&gt;called_girlish -->
    <g
       id="edge34"
       class="edge">
      <title
         id="title69">introversion-&gt;called_girlish</title>
      <path
         fill="none"
         stroke="#000000"
         d="m 1034.48,-353.99 c -9.12,-12.43 -21.59,-29.43 -31.96,-43.57"
         id="path69" />
      <polygon
         fill="#000000"
         stroke="#000000"
         points="999.73,-395.44 996.64,-405.58 1005.38,-399.58 "
         id="polygon69" />
    </g>
    <!-- sex_orie&#45;&gt;play_with_girls -->
    <g
       id="edge45"
       class="edge">
      <title
         id="title70">sex_orie-&gt;play_with_girls</title>
      <polygon
         fill="#000000"
         stroke="#000000"
         points="763.85,-409.91 762.78,-416.83 773.2,-414.9 "
         id="polygon70"
         transform="rotate(-41.508041,797.31474,-439.28629)" />
    </g>
    <!-- crush -->
    <g
       id="node35"
       class="node"
       transform="translate(169.98617,89.570562)">
      <title
         id="title71">crush</title>
      <path
         fill="none"
         stroke="#000000"
         d="m 263.62,-443 h -75 c -6,0 -12,6 -12,12 v 12 c 0,6 6,12 12,12 h 75 c 6,0 12,-6 12,-12 v -12 c 0,-6 -6,-12 -12,-12"
         id="path71"
         sodipodi:nodetypes="csssssssc" />
      <text
         xml:space="preserve"
         text-anchor="middle"
         x="226.12"
         y="-428.23001"
         font-family="'Noto Sans'"
         font-size="12px"
         id="text71"><tspan
           sodipodi:role="line"
           id="tspan3"
           x="226.12"
           y="-428.23001">Gender </tspan><tspan
           sodipodi:role="line"
           id="tspan4"
           x="226.12"
           y="-413.23001">incongruence</tspan></text>
    </g>
    <!-- sex_orie&#45;&gt;crush -->
    <!-- tv_series&#45;&gt;g_behaviour -->
    <g
       id="edge14"
       class="edge">
      <title
         id="title73">tv_series-&gt;g_behaviour</title>
      <path
         fill="none"
         stroke="#000000"
         d="m 1170.89,-357.3 c -32.92,-31.87 -96.19,-93.1 -131.78,-127.55"
         id="path73" />
      <polygon
         fill="#000000"
         stroke="#000000"
         points="1036.95,-482.07 1032.2,-491.54 1041.82,-487.1 "
         id="polygon73" />
    </g>
    <!-- tv_series&#45;&gt;play_with_girls -->
    <g
       id="edge38"
       class="edge"
       transform="translate(-3,-1.5)">
      <title
         id="title74">tv_series-&gt;play_with_girls</title>
      <path
         fill="none"
         stroke="#000000"
         d="M 1135.9834,-347.84658 C 1103.5032,-355.93198 1011.3241,-381.37495 900.55,-407.76"
         id="path74"
         sodipodi:nodetypes="cc" />
      <polygon
         fill="#000000"
         stroke="#000000"
         points="899.99,-404.29 891.08,-410.01 901.62,-411.1 "
         id="polygon74" />
    </g>
    <!-- tv_series&#45;&gt;called_girlish -->
    <g
       id="edge37"
       class="edge">
      <title
         id="title75">tv_series-&gt;called_girlish</title>
      <path
         fill="none"
         stroke="#000000"
         d="m 1142.59,-357.43 c -32.35,-13.5 -74.52,-31.11 -107.37,-44.82"
         id="path75" />
      <polygon
         fill="#000000"
         stroke="#000000"
         points="1034.18,-398.89 1026.3,-405.98 1036.88,-405.35 "
         id="polygon75" />
    </g>
    <!-- blame -->
    <g
       id="node33"
       class="node">
      <title
         id="title76">blame</title>
      <path
         fill="none"
         stroke="#000000"
         d="m 1209.5,-443 c 0,0 -34.75,0 -34.75,0 -6,0 -12,6 -12,12 0,0 0,12 0,12 0,6 6,12 12,12 0,0 34.75,0 34.75,0 6,0 12,-6 12,-12 0,0 0,-12 0,-12 0,-6 -6,-12 -12,-12"
         id="path76" />
      <text
         xml:space="preserve"
         text-anchor="middle"
         x="1192.12"
         y="-422.23001"
         font-family="'Noto Sans'"
         font-size="12px"
         id="text76">Blamed</text>
    </g>
    <!-- tv_series&#45;&gt;blame -->
    <g
       id="edge13"
       class="edge">
      <title
         id="title77">tv_series-&gt;blame</title>
      <path
         fill="none"
         stroke="#000000"
         d="m 1192.12,-357.43 c 0,-11.38 0,-25.67 0,-38.09"
         id="path77" />
      <polygon
         fill="#000000"
         stroke="#000000"
         points="1188.63,-395.19 1192.13,-405.19 1195.63,-395.19 "
         id="polygon77" />
    </g>
    <!-- toys&#45;&gt;play_with_girls -->
    <g
       id="edge40"
       class="edge">
      <title
         id="title78">toys-&gt;play_with_girls</title>
      <path
         fill="none"
         stroke="#000000"
         d="m 889.9,-353.99 c -10.35,-12.55 -24.56,-29.76 -36.29,-43.98"
         id="path78" />
      <polygon
         fill="#000000"
         stroke="#000000"
         points="850.95,-395.69 847.28,-405.63 856.35,-400.15 "
         id="polygon78" />
    </g>
    <!-- toys&#45;&gt;called_girlish -->
    <g
       id="edge39"
       class="edge">
      <title
         id="title79">toys-&gt;called_girlish</title>
      <path
         fill="none"
         stroke="#000000"
         d="m 919.73,-353.99 c 11.47,-12.66 27.25,-30.09 40.19,-44.38"
         id="path79" />
      <polygon
         fill="#000000"
         stroke="#000000"
         points="957.23,-400.61 966.53,-405.68 962.42,-395.91 "
         id="polygon79" />
    </g>
    <!-- chain&#45;&gt;g_identity -->
    <g
       id="edge23"
       class="edge"
       transform="rotate(31.18177,755.02286,-268.25978)"
       inkscape:transform-center-x="50.518247"
       inkscape:transform-center-y="56.99858">
      <title
         id="title80">chain-&gt;g_identity</title>
      <path
         fill="none"
         stroke="#000000"
         d="m 674.54892,-319.37526 c -4.26725,-29.56022 0.59801,-120.22831 7.29801,-156.49831"
         id="path80"
         sodipodi:nodetypes="cc" />
      <polygon
         fill="#000000"
         stroke="#000000"
         points="692.63,-491.08 694.26,-480.61 687.37,-481.88 "
         id="polygon80"
         transform="translate(-8.9830544,5.4364258)" />
    </g>
    <g
       id="edge23-2"
       class="edge"
       transform="rotate(46.027189,733.65921,-394.36188)"
       inkscape:transform-center-x="63.474625"
       inkscape:transform-center-y="41.659152">
      <title
         id="title80-6">chain-&gt;g_identity</title>
      <path
         fill="none"
         stroke="#000000"
         d="m 667.83523,-395.62819 c 5.04695,-29.8302 5.87773,-38.66336 12.0254,-75.03105"
         id="path80-1"
         sodipodi:nodetypes="cc" />
      <polygon
         fill="#000000"
         stroke="#000000"
         points="687.37,-481.88 692.63,-491.08 694.26,-480.61 "
         id="polygon80-0"
         transform="rotate(-0.87133457,1385.687,245.30799)" />
    </g>
    <!-- play_with_girls&#45;&gt;g_behaviour -->
    <g
       id="edge63"
       class="edge"
       transform="translate(-31.5)">
      <title
         id="title81">play_with_girls-&gt;g_behaviour</title>
      <path
         fill="none"
         stroke="#000000"
         d="m 886.15,-447.84 c 7.42,-3.16 14.91,-6.43 21.97,-9.66 20.5,-9.36 42.87,-20.42 61.68,-29.97"
         id="path81" />
      <polygon
         fill="#000000"
         stroke="#000000"
         points="887.73,-444.71 877.15,-444.05 885.01,-451.16 "
         id="polygon81" />
      <polygon
         fill="#000000"
         stroke="#000000"
         points="968,-490.48 978.49,-491.92 971.18,-484.25 "
         id="polygon82" />
    </g>
    <!-- play_with_girls&#45;&gt;called_girlish -->
    <g
       id="edge62"
       class="edge">
      <title
         id="title82">play_with_girls-&gt;called_girlish</title>
      <path
         fill="none"
         stroke="#000000"
         d="m 900.98,-425 c 12.40574,0 24.83,0 37.23574,0"
         id="path82"
         style="stroke-width:1.36074" />
      <polygon
         fill="#000000"
         stroke="#000000"
         points="901.15,-421.5 891.15,-425 901.15,-428.5 "
         id="polygon83" />
      <polygon
         fill="#000000"
         stroke="#000000"
         points="920.85,-421.5 920.85,-428.5 930.85,-425 "
         id="polygon84"
         transform="translate(13.5)" />
    </g>
    <!-- called_girlish&#45;&gt;g_identity -->
    <g
       id="edge35"
       class="edge"
       transform="translate(125.84904,-5.8623433)">
      <title
         id="title84">called_girlish-&gt;g_identity</title>
      <path
         fill="none"
         stroke="#000000"
         d="m 830.52,-437.71902 c 0,0 -57.57627,-19.07559 -98.38,-43.10098"
         id="path84"
         sodipodi:nodetypes="cc" />
      <polygon
         fill="#000000"
         stroke="#000000"
         points="723.57,-491.96 733.95,-489.82 730.35,-483.81 "
         id="polygon85"
         transform="translate(0,6.3799474)" />
    </g>
    <!-- blame&#45;&gt;g_behaviour -->
    <g
       id="edge12"
       class="edge">
      <title
         id="title85">blame-&gt;g_behaviour</title>
      <path
         fill="none"
         stroke="#000000"
         d="m 1162.57,-439.87 c -27.78,-13.04 -69.81,-32.76 -102.23,-47.97"
         id="path85" />
      <polygon
         fill="#000000"
         stroke="#000000"
         points="1059.12,-484.55 1051.55,-491.97 1062.09,-490.89 "
         id="polygon86" />
    </g>
    <!-- zweig -->
    <g
       id="node34"
       class="node"
       transform="translate(150)">
      <title
         id="title86">zweig</title>
      <path
         fill="none"
         stroke="#000000"
         d="m 338.12,-443 h -85.5 c -6,0 -12,6 -12,12 v 12 c 0,6 6,12 12,12 h 85.5 c 6,0 12,-6 12,-12 v -12 c 0,-6 -6,-12 -12,-12"
         id="path86"
         sodipodi:nodetypes="csssssssc" />
      <text
         xml:space="preserve"
         text-anchor="middle"
         x="297.62"
         y="-422.23001"
         font-family="'Noto Sans'"
         font-size="12px"
         id="text86">Neurodermatitis</text>
    </g>
    <!-- zweig&#45;&gt;g_body_func -->
    <g
       id="edge48"
       class="edge"
       transform="rotate(32.013498,406.42288,-199.77258)">
      <title
         id="title87">zweig-&gt;g_body_func</title>
      <path
         fill="none"
         stroke="#000000"
         d="M 317.96184,-431.61536 323.12,-481.27"
         id="path87"
         sodipodi:nodetypes="cc" />
      <polygon
         fill="#000000"
         stroke="#000000"
         points="326.63,-481.1 319.63,-481.1 323.13,-491.1 "
         id="polygon87" />
    </g>
    <!-- crush&#45;&gt;g_body_func -->
    <g
       id="edge49"
       class="edge"
       transform="rotate(130.96824,309.63048,-405.85112)">
      <title
         id="title88">crush-&gt;g_body_func</title>
      <path
         fill="none"
         stroke="#000000"
         d="M 216.66899,-417.74044 C 230.58899,-429.80044 278.87,-471.68 294.37,-485.1"
         id="path88"
         sodipodi:nodetypes="cc" />
      <polygon
         fill="#000000"
         stroke="#000000"
         points="296.64,-482.43 292.06,-487.73 301.91,-491.63 "
         id="polygon88" />
    </g>
    <g
       id="node11-4"
       class="node"
       transform="translate(-142.21768,0.249985)">
      <title
         id="title33-3">g_body_func</title>
      <polygon
         fill="#ffffff"
         stroke="#ffffff"
         points="256.25,-529 256.25,-493 390,-493 390,-529 "
         id="polygon33-0" />
      <text
         xml:space="preserve"
         text-anchor="middle"
         x="323.12"
         y="-508.23001"
         font-family="'Noto Sans'"
         font-size="12px"
         id="text33-7">Body Envy (Function)</text>
    </g>
    <g
       id="node35-8"
       class="node"
       transform="matrix(-1,0,0,1,444.52232,0.249985)">
      <title
         id="title71-6">crush</title>
      <path
         fill="none"
         stroke="#000000"
         d="m 241.12,-443 c 0,0 -30,0 -30,0 -6,0 -12,6 -12,12 0,0 0,12 0,12 0,6 6,12 12,12 0,0 30,0 30,0 6,0 12,-6 12,-12 0,0 0,-12 0,-12 0,-6 -6,-12 -12,-12"
         id="path71-8" />
      <text
         xml:space="preserve"
         text-anchor="middle"
         x="-225.88002"
         y="-422.23001"
         font-family="'Noto Sans'"
         font-size="12px"
         id="text71-8"
         transform="scale(-1,1)">Crush</text>
    </g>
    <g
       id="node34-4"
       class="node"
       transform="matrix(-1,0,0,1,474.52232,0.249985)">
      <title
         id="title86-3">zweig</title>
      <path
         fill="none"
         stroke="#000000"
         d="m 338.12,-443 c 0,0 -30,0 -30,0 -6,0 -12,6 -12,12 0,0 0,12 0,12 0,6 6,12 12,12 0,0 30,0 30,0 6,0 12,-6 12,-12 0,0 0,-12 0,-12 0,-6 -6,-12 -12,-12"
         id="path86-1" />
      <text
         xml:space="preserve"
         text-anchor="middle"
         x="-322.556"
         y="-422.23001"
         font-family="'Noto Sans'"
         font-size="12px"
         id="text86-4"
         transform="scale(-1,1)">Zweig</text>
    </g>
    <g
       id="edge48-9"
       class="edge"
       transform="matrix(-1,0,0,1,474.52232,0.249985)">
      <title
         id="title87-2">zweig-&gt;g_body_func</title>
      <path
         fill="none"
         stroke="#000000"
         d="m 323.12,-443.4 c 0,-10.93 0,-25.28 0,-37.87"
         id="path87-0" />
      <polygon
         fill="#000000"
         stroke="#000000"
         points="319.63,-481.1 323.13,-491.1 326.63,-481.1 "
         id="polygon87-6" />
    </g>
    <g
       id="edge48-9-4"
       class="edge"
       transform="matrix(-1,0,0,1,543.48705,0.4372129)">
      <title
         id="title87-2-9">zweig-&gt;g_body_func</title>
      <path
         fill="none"
         stroke="#000000"
         d="m 323.12,-443.4 c 0,-10.93 0,-25.28 0,-37.87"
         id="path87-0-5" />
      <polygon
         fill="#000000"
         stroke="#000000"
         points="319.63,-481.1 323.13,-491.1 326.63,-481.1 "
         id="polygon87-6-0" />
    </g>
    <!-- name_misspell -->
    <g
       id="node36"
       class="node"
       transform="translate(27)">
      <title
         id="title89">name_misspell</title>
      <path
         fill="none"
         stroke="#000000"
         d="m 581.88,-443 c 0,0 -89.5,0 -89.5,0 -6,0 -12,6 -12,12 0,0 0,12 0,12 0,6 6,12 12,12 0,0 89.5,0 89.5,0 6,0 12,-6 12,-12 0,0 0,-12 0,-12 0,-6 -6,-12 -12,-12"
         id="path89" />
      <text
         xml:space="preserve"
         text-anchor="middle"
         x="537.12"
         y="-422.23001"
         font-family="'Noto Sans'"
         font-size="12px"
         id="text89">Name Misspelled</text>
    </g>
    <!-- name_misspell&#45;&gt;g_name -->
    <g
       id="edge19"
       class="edge"
       transform="matrix(-1,0,0,1,1110.2085,0)">
      <title
         id="title90">name_misspell-&gt;g_name</title>
      <path
         fill="none"
         stroke="#000000"
         d="m 530.49,-443.4 c -4.24,-11.16 -9.85,-25.88 -14.71,-38.64"
         id="path90" />
      <polygon
         fill="#000000"
         stroke="#000000"
         points="512.58,-480.61 512.29,-491.2 519.12,-483.1 "
         id="polygon90" />
    </g>
    <!-- abolition&#45;&gt;analysis -->
    <g
       id="node17-5"
       class="node"
       transform="translate(-0.42671033,89.838365)">
      <title
         id="title10-2">bullying</title>
      <path
         fill="none"
         stroke="#000000"
         d="m 864.25,-168.75 c 0,0 -114.25,0 -114.25,0 -6,0 -12,6 -12,12 0,0 0,12 0,12 0,6 6,12 12,12 0,0 114.25,0 114.25,0 6,0 12,-6 12,-12 0,0 0,-12 0,-12 0,-6 -6,-12 -12,-12"
         id="path10-5" />
      <text
         xml:space="preserve"
         text-anchor="middle"
         x="807.12"
         y="-147.97"
         font-family="'Noto Sans'"
         font-size="12px"
         id="text10-4">Personality Traits</text>
    </g>
    <g
       id="node17-5-5"
       class="node"
       transform="translate(-314.34767,90)">
      <title
         id="title10-2-6">bullying</title>
      <path
         fill="none"
         stroke="#000000"
         d="m 864.25,-168.75 c 0,0 -114.25,0 -114.25,0 -6,0 -12,6 -12,12 0,0 0,12 0,12 0,6 6,12 12,12 0,0 114.25,0 114.25,0 6,0 12,-6 12,-12 0,0 0,-12 0,-12 0,-6 -6,-12 -12,-12"
         id="path10-5-3" />
      <text
         xml:space="preserve"
         text-anchor="middle"
         x="807.12"
         y="-147.97"
         font-family="'Noto Sans'"
         font-size="12px"
         id="text10-4-9">Neuroaesthetic Traits</text>
    </g>
    <g
       id="edge55-1"
       class="edge"
       transform="rotate(36.716778,1033.8798,-2175.3045)"
       inkscape:transform-center-x="17.492363"
       inkscape:transform-center-y="18.582057">
      <title
         id="title65-5">universal-&gt;abolition</title>
      <path
         fill="none"
         stroke="#000000"
         d="m 1612.8327,-335.25412 c 1.31,-11.38 5.6073,-47.84588 7.0273,-60.26588"
         id="path65-9"
         sodipodi:nodetypes="cc" />
      <polygon
         fill="#000000"
         stroke="#000000"
         points="1623.31,-394.86 1616.35,-395.66 1620.97,-405.2 "
         id="polygon65-4" />
    </g>
  </g>
</svg>
