<?xml version="1.0" encoding="UTF-8" standalone="no"?>
<!DOCTYPE svg PUBLIC "-//W3C//DTD SVG 1.1//EN"
 "http://www.w3.org/Graphics/SVG/1.1/DTD/svg11.dtd">
<!-- Generated by graphviz version 14.0.5 (0)
 -->
<!-- Pages: 1 -->
<svg width="3600pt" height="2329pt"
 viewBox="0.00 0.00 3600.00 2329.00" xmlns="http://www.w3.org/2000/svg" xmlns:xlink="http://www.w3.org/1999/xlink">
<g id="graph0" class="graph" transform="scale(2.77778 2.77778) rotate(0) translate(4 834.32)">
<polygon fill="white" stroke="none" points="-4,4 -4,-834.32 1292,-834.32 1292,4 -4,4"/>
<g id="clust1" class="cluster">
<title>cluster_Bio</title>
<polygon fill="none" stroke="black" stroke-dasharray="5,2" points="8,-467.82 8,-822.32 308,-822.32 308,-467.82 8,-467.82"/>
<text xml:space="preserve" text-anchor="middle" x="158" y="-805.02" font-family="Times,serif" font-size="14.00">Biological Critique of Gender Identity [cite: 25]</text>
</g>
<g id="clust2" class="cluster">
<title>cluster_Phil</title>
<polygon fill="none" stroke="black" stroke-dasharray="5,2" points="316,-467.82 316,-624.32 990,-624.32 990,-467.82 316,-467.82"/>
<text xml:space="preserve" text-anchor="middle" x="653" y="-607.02" font-family="Times,serif" font-size="14.00">Philosophical Critique of Constructs [cite: 89]</text>
</g>
<g id="clust3" class="cluster">
<title>cluster_Queer</title>
<polygon fill="none" stroke="black" stroke-dasharray="5,2" points="998,-467.82 998,-723.32 1280,-723.32 1280,-467.82 998,-467.82"/>
<text xml:space="preserve" text-anchor="middle" x="1139" y="-706.02" font-family="Times,serif" font-size="14.00">Critique of Queer Theory [cite: 10, 211]</text>
</g>
<g id="clust4" class="cluster">
<title>cluster_Abolition</title>
<polygon fill="none" stroke="black" stroke-dasharray="5,2" points="462,-8 462,-288.25 922,-288.25 922,-8 462,-8"/>
<text xml:space="preserve" text-anchor="middle" x="692" y="-270.95" font-family="Times,serif" font-size="14.00">The Proposal: Scientific Realism &amp; Abolition [cite: 163]</text>
</g>
<!-- Thesis -->
<g id="node1" class="node">
<title>Thesis</title>
<polygon fill="lightgrey" stroke="black" points="923.81,-359.52 923.81,-394.55 861.83,-419.32 774.17,-419.32 712.19,-394.55 712.19,-359.52 774.17,-334.75 861.83,-334.75 923.81,-359.52"/>
<polygon fill="none" stroke="black" points="927.81,-356.81 927.81,-397.26 862.6,-423.32 773.4,-423.32 708.19,-397.26 708.19,-356.81 773.4,-330.75 862.6,-330.75 927.81,-356.81"/>
<text xml:space="preserve" text-anchor="middle" x="818" y="-387.36" font-family="Helvetica,sans-Serif" font-size="14.00">Core Thesis: </text>
<text xml:space="preserve" text-anchor="middle" x="818" y="-371.61" font-family="Helvetica,sans-Serif" font-size="14.00">Gender Abolitionism</text>
<text xml:space="preserve" text-anchor="middle" x="818" y="-355.86" font-family="Helvetica,sans-Serif" font-size="14.00">[cite: 7, 9]</text>
</g>
<!-- Sex_Def -->
<g id="node12" class="node">
<title>Sex_Def</title>
<polygon fill="white" stroke="black" points="703.75,-247.88 470.25,-247.88 470.25,-208.38 703.75,-208.38 703.75,-247.88"/>
<text xml:space="preserve" text-anchor="middle" x="587" y="-230.57" font-family="Helvetica,sans-Serif" font-size="14.00">Sex Sensu Stricto:</text>
<text xml:space="preserve" text-anchor="middle" x="587" y="-214.82" font-family="Helvetica,sans-Serif" font-size="14.00">Strictly limited to gametes [cite: 164]</text>
</g>
<!-- Thesis&#45;&gt;Sex_Def -->
<g id="edge14" class="edge">
<title>Thesis&#45;&gt;Sex_Def</title>
<path fill="none" stroke="black" d="M756.7,-337.05C715.53,-310.87 662.47,-277.12 626.73,-254.39"/>
<polygon fill="black" stroke="black" points="628.73,-251.52 618.41,-249.1 624.97,-257.42 628.73,-251.52"/>
<text xml:space="preserve" text-anchor="middle" x="740.33" y="-299.45" font-family="Times,serif" font-size="14.00">Requires</text>
</g>
<!-- Pheno_Sex -->
<g id="node13" class="node">
<title>Pheno_Sex</title>
<polygon fill="white" stroke="black" points="913.75,-255.75 722.25,-255.75 722.25,-200.5 913.75,-200.5 913.75,-255.75"/>
<text xml:space="preserve" text-anchor="middle" x="818" y="-238.45" font-family="Helvetica,sans-Serif" font-size="14.00">Phenotypic Sex:</text>
<text xml:space="preserve" text-anchor="middle" x="818" y="-222.7" font-family="Helvetica,sans-Serif" font-size="14.00">Dismantled into independent </text>
<text xml:space="preserve" text-anchor="middle" x="818" y="-206.95" font-family="Helvetica,sans-Serif" font-size="14.00">trait spectrum </text>
</g>
<!-- Thesis&#45;&gt;Pheno_Sex -->
<g id="edge15" class="edge">
<title>Thesis&#45;&gt;Pheno_Sex</title>
<path fill="none" stroke="black" d="M818,-330.36C818,-310.13 818,-286.61 818,-267.33"/>
<polygon fill="black" stroke="black" points="821.5,-267.45 818,-257.45 814.5,-267.45 821.5,-267.45"/>
<text xml:space="preserve" text-anchor="middle" x="842" y="-299.45" font-family="Times,serif" font-size="14.00">Requires</text>
</g>
<!-- Social_Abolition -->
<g id="node14" class="node">
<title>Social_Abolition</title>
<polygon fill="white" stroke="black" points="913.62,-163.5 676.38,-163.5 676.38,-108.25 913.62,-108.25 913.62,-163.5"/>
<text xml:space="preserve" text-anchor="middle" x="795" y="-146.2" font-family="Helvetica,sans-Serif" font-size="14.00">Social/Legal Abolition:</text>
<text xml:space="preserve" text-anchor="middle" x="795" y="-130.45" font-family="Helvetica,sans-Serif" font-size="14.00">Remove gender markers, pronouns, </text>
<text xml:space="preserve" text-anchor="middle" x="795" y="-114.7" font-family="Helvetica,sans-Serif" font-size="14.00">segregation </text>
</g>
<!-- Thesis&#45;&gt;Social_Abolition -->
<g id="edge16" class="edge">
<title>Thesis&#45;&gt;Social_Abolition</title>
<path fill="none" stroke="black" d="M881.49,-337.83C898.11,-324.41 913.89,-307.73 923,-288.25 939.51,-252.92 943.54,-233.65 923,-200.5 915.29,-188.06 904.34,-177.98 892.06,-169.82"/>
<polygon fill="black" stroke="black" points="894.08,-166.96 883.72,-164.74 890.44,-172.94 894.08,-166.96"/>
<text xml:space="preserve" text-anchor="middle" x="957.56" y="-223.07" font-family="Times,serif" font-size="14.00">Implies</text>
</g>
<!-- Bio_Premise -->
<g id="node2" class="node">
<title>Bio_Premise</title>
<polygon fill="white" stroke="black" points="279.25,-789.82 36.75,-789.82 36.75,-750.32 279.25,-750.32 279.25,-789.82"/>
<text xml:space="preserve" text-anchor="middle" x="158" y="-772.52" font-family="Helvetica,sans-Serif" font-size="14.00">Critique: &quot;Innate Gender Identity&quot;</text>
<text xml:space="preserve" text-anchor="middle" x="158" y="-756.77" font-family="Helvetica,sans-Serif" font-size="14.00">is biologically groundless [cite: 26, 29]</text>
</g>
<!-- Neuroplasticity -->
<g id="node3" class="node">
<title>Neuroplasticity</title>
<polygon fill="white" stroke="black" points="257.5,-690.82 58.5,-690.82 58.5,-651.32 257.5,-651.32 257.5,-690.82"/>
<text xml:space="preserve" text-anchor="middle" x="158" y="-673.52" font-family="Helvetica,sans-Serif" font-size="14.00">Mechanism: Neuroplasticity &amp; </text>
<text xml:space="preserve" text-anchor="middle" x="158" y="-657.77" font-family="Helvetica,sans-Serif" font-size="14.00">Predictive Coding </text>
</g>
<!-- Bio_Premise&#45;&gt;Neuroplasticity -->
<g id="edge1" class="edge">
<title>Bio_Premise&#45;&gt;Neuroplasticity</title>
<path fill="none" stroke="black" d="M158,-749.91C158,-736.36 158,-717.91 158,-702.38"/>
<polygon fill="black" stroke="black" points="161.5,-702.71 158,-692.71 154.5,-702.71 161.5,-702.71"/>
</g>
<!-- Body_Rep -->
<g id="node4" class="node">
<title>Body_Rep</title>
<polygon fill="white" stroke="black" points="281.12,-591.82 34.88,-591.82 34.88,-552.32 281.12,-552.32 281.12,-591.82"/>
<text xml:space="preserve" text-anchor="middle" x="158" y="-574.52" font-family="Helvetica,sans-Serif" font-size="14.00">Body Representation Incongruence</text>
<text xml:space="preserve" text-anchor="middle" x="158" y="-558.77" font-family="Helvetica,sans-Serif" font-size="14.00">(Sensory prediction error) [cite: 76, 80]</text>
</g>
<!-- Neuroplasticity&#45;&gt;Body_Rep -->
<g id="edge2" class="edge">
<title>Neuroplasticity&#45;&gt;Body_Rep</title>
<path fill="none" stroke="black" d="M158,-650.91C158,-637.36 158,-618.91 158,-603.38"/>
<polygon fill="black" stroke="black" points="161.5,-603.71 158,-593.71 154.5,-603.71 161.5,-603.71"/>
</g>
<!-- PostHoc -->
<g id="node5" class="node">
<title>PostHoc</title>
<polygon fill="white" stroke="black" points="299.5,-515.32 16.5,-515.32 16.5,-475.82 299.5,-475.82 299.5,-515.32"/>
<text xml:space="preserve" text-anchor="middle" x="158" y="-498.02" font-family="Helvetica,sans-Serif" font-size="14.00">Gender Identity is a &quot;Conceptual Chimaera&quot;:</text>
<text xml:space="preserve" text-anchor="middle" x="158" y="-482.27" font-family="Helvetica,sans-Serif" font-size="14.00">Post&#45;hoc rationalisation of raw feelings </text>
</g>
<!-- Body_Rep&#45;&gt;PostHoc -->
<g id="edge3" class="edge">
<title>Body_Rep&#45;&gt;PostHoc</title>
<path fill="none" stroke="black" d="M158,-551.89C158,-544.33 158,-535.46 158,-527.06"/>
<polygon fill="black" stroke="black" points="161.5,-527.21 158,-517.21 154.5,-527.21 161.5,-527.21"/>
</g>
<!-- PostHoc&#45;&gt;Thesis -->
<g id="edge11" class="edge">
<title>PostHoc&#45;&gt;Thesis</title>
<path fill="none" stroke="black" d="M266.99,-475.33C385.22,-454.45 573.49,-421.21 696.43,-399.5"/>
<polygon fill="black" stroke="black" points="697.02,-402.95 706.26,-397.77 695.8,-396.06 697.02,-402.95"/>
<text xml:space="preserve" text-anchor="middle" x="472.48" y="-444.52" font-family="Times,serif" font-size="14.00">Supports</text>
</g>
<!-- Constructs -->
<g id="node6" class="node">
<title>Constructs</title>
<polygon fill="white" stroke="black" points="778.5,-591.82 519.5,-591.82 519.5,-552.32 778.5,-552.32 778.5,-591.82"/>
<text xml:space="preserve" text-anchor="middle" x="649" y="-574.52" font-family="Helvetica,sans-Serif" font-size="14.00">Critique: &quot;Cis/Trans&quot; Binary &amp; </text>
<text xml:space="preserve" text-anchor="middle" x="649" y="-558.77" font-family="Helvetica,sans-Serif" font-size="14.00">&quot;Assigned Sex at Birth&quot; (ASAB) [cite: 92]</text>
</g>
<!-- Inconsistency -->
<g id="node7" class="node">
<title>Inconsistency</title>
<polygon fill="white" stroke="black" points="635.75,-515.32 324.25,-515.32 324.25,-475.82 635.75,-475.82 635.75,-515.32"/>
<text xml:space="preserve" text-anchor="middle" x="480" y="-498.02" font-family="Helvetica,sans-Serif" font-size="14.00">Logical Inconsistency:</text>
<text xml:space="preserve" text-anchor="middle" x="480" y="-482.27" font-family="Helvetica,sans-Serif" font-size="14.00">ASAB (event) vs Identity (mental state) [cite: 102]</text>
</g>
<!-- Constructs&#45;&gt;Inconsistency -->
<g id="edge4" class="edge">
<title>Constructs&#45;&gt;Inconsistency</title>
<path fill="none" stroke="black" d="M605.48,-551.89C583.68,-542.28 557.09,-530.55 534,-520.38"/>
<polygon fill="black" stroke="black" points="535.61,-517.26 525.05,-516.43 532.79,-523.67 535.61,-517.26"/>
</g>
<!-- Essentialism -->
<g id="node8" class="node">
<title>Essentialism</title>
<polygon fill="white" stroke="black" points="982,-515.32 654,-515.32 654,-475.82 982,-475.82 982,-515.32"/>
<text xml:space="preserve" text-anchor="middle" x="818" y="-498.02" font-family="Helvetica,sans-Serif" font-size="14.00">Hidden Essentialism:</text>
<text xml:space="preserve" text-anchor="middle" x="818" y="-482.27" font-family="Helvetica,sans-Serif" font-size="14.00">Presumes everyone has a gender identity [cite: 120]</text>
</g>
<!-- Constructs&#45;&gt;Essentialism -->
<g id="edge5" class="edge">
<title>Constructs&#45;&gt;Essentialism</title>
<path fill="none" stroke="black" d="M692.52,-551.89C714.32,-542.28 740.91,-530.55 764,-520.38"/>
<polygon fill="black" stroke="black" points="765.21,-523.67 772.95,-516.43 762.39,-517.26 765.21,-523.67"/>
</g>
<!-- Essentialism&#45;&gt;Thesis -->
<g id="edge12" class="edge">
<title>Essentialism&#45;&gt;Thesis</title>
<path fill="none" stroke="black" d="M818,-475.33C818,-464.1 818,-449.29 818,-434.62"/>
<polygon fill="black" stroke="black" points="821.5,-435.01 818,-425.01 814.5,-435.01 821.5,-435.01"/>
<text xml:space="preserve" text-anchor="middle" x="842" y="-444.52" font-family="Times,serif" font-size="14.00">Supports</text>
</g>
<!-- QT_Ontology -->
<g id="node9" class="node">
<title>QT_Ontology</title>
<polygon fill="white" stroke="black" points="1244.12,-690.82 1033.88,-690.82 1033.88,-651.32 1244.12,-651.32 1244.12,-690.82"/>
<text xml:space="preserve" text-anchor="middle" x="1139" y="-673.52" font-family="Helvetica,sans-Serif" font-size="14.00">Ontology: Rejection of </text>
<text xml:space="preserve" text-anchor="middle" x="1139" y="-657.77" font-family="Helvetica,sans-Serif" font-size="14.00">Objective Reality [cite: 136, 260]</text>
</g>
<!-- QT_Method -->
<g id="node10" class="node">
<title>QT_Method</title>
<polygon fill="white" stroke="black" points="1272.25,-591.82 1005.75,-591.82 1005.75,-552.32 1272.25,-552.32 1272.25,-591.82"/>
<text xml:space="preserve" text-anchor="middle" x="1139" y="-574.52" font-family="Helvetica,sans-Serif" font-size="14.00">Method: &quot;Subversive Repetition&quot;</text>
<text xml:space="preserve" text-anchor="middle" x="1139" y="-558.77" font-family="Helvetica,sans-Serif" font-size="14.00">(Repeating gender norms) [cite: 215, 226]</text>
</g>
<!-- QT_Ontology&#45;&gt;QT_Method -->
<g id="edge6" class="edge">
<title>QT_Ontology&#45;&gt;QT_Method</title>
<path fill="none" stroke="black" d="M1139,-650.91C1139,-637.36 1139,-618.91 1139,-603.38"/>
<polygon fill="black" stroke="black" points="1142.5,-603.71 1139,-593.71 1135.5,-603.71 1142.5,-603.71"/>
</g>
<!-- QT_Outcome -->
<g id="node11" class="node">
<title>QT_Outcome</title>
<polygon fill="white" stroke="black" points="1269.75,-515.32 1006.25,-515.32 1006.25,-475.82 1269.75,-475.82 1269.75,-515.32"/>
<text xml:space="preserve" text-anchor="middle" x="1138" y="-498.02" font-family="Helvetica,sans-Serif" font-size="14.00">Outcome: Reinforces &quot;Gender&#45;Centrism&quot;</text>
<text xml:space="preserve" text-anchor="middle" x="1138" y="-482.27" font-family="Helvetica,sans-Serif" font-size="14.00">(Expands the &quot;prison&quot;) [cite: 227, 233]</text>
</g>
<!-- QT_Method&#45;&gt;QT_Outcome -->
<g id="edge7" class="edge">
<title>QT_Method&#45;&gt;QT_Outcome</title>
<path fill="none" stroke="black" d="M1138.74,-551.89C1138.64,-544.33 1138.52,-535.46 1138.41,-527.06"/>
<polygon fill="black" stroke="black" points="1141.91,-527.16 1138.28,-517.21 1134.91,-527.25 1141.91,-527.16"/>
</g>
<!-- QT_Outcome&#45;&gt;Thesis -->
<g id="edge13" class="edge">
<title>QT_Outcome&#45;&gt;Thesis</title>
<path fill="none" stroke="black" d="M1085.16,-475.33C1038.21,-458.23 968.49,-432.84 912.04,-412.28"/>
<polygon fill="black" stroke="black" points="913.32,-409.02 902.72,-408.89 910.92,-415.6 913.32,-409.02"/>
<text xml:space="preserve" text-anchor="middle" x="1105.74" y="-444.52" font-family="Times,serif" font-size="14.00">Motivates (Failure of QT)</text>
</g>
<!-- Sex_Def&#45;&gt;Social_Abolition -->
<g id="edge8" class="edge">
<title>Sex_Def&#45;&gt;Social_Abolition</title>
<path fill="none" stroke="black" d="M631.11,-207.99C657.68,-196.46 692.16,-181.49 722.64,-168.27"/>
<polygon fill="black" stroke="black" points="723.64,-171.65 731.42,-164.46 720.85,-165.23 723.64,-171.65"/>
</g>
<!-- Pheno_Sex&#45;&gt;Social_Abolition -->
<g id="edge9" class="edge">
<title>Pheno_Sex&#45;&gt;Social_Abolition</title>
<path fill="none" stroke="black" d="M811.1,-200.05C809.1,-192.19 806.87,-183.47 804.73,-175.07"/>
<polygon fill="black" stroke="black" points="808.13,-174.23 802.27,-165.4 801.35,-175.96 808.13,-174.23"/>
</g>
<!-- Rights -->
<g id="node15" class="node">
<title>Rights</title>
<polygon fill="white" stroke="black" points="885.5,-71.25 704.5,-71.25 704.5,-16 885.5,-16 885.5,-71.25"/>
<text xml:space="preserve" text-anchor="middle" x="795" y="-53.95" font-family="Helvetica,sans-Serif" font-size="14.00">Trans Rights:</text>
<text xml:space="preserve" text-anchor="middle" x="795" y="-38.2" font-family="Helvetica,sans-Serif" font-size="14.00">Based on Bodily Autonomy,</text>
<text xml:space="preserve" text-anchor="middle" x="795" y="-22.45" font-family="Helvetica,sans-Serif" font-size="14.00">not Identity </text>
</g>
<!-- Social_Abolition&#45;&gt;Rights -->
<g id="edge10" class="edge">
<title>Social_Abolition&#45;&gt;Rights</title>
<path fill="none" stroke="black" d="M795,-107.8C795,-100.03 795,-91.42 795,-83.11"/>
<polygon fill="black" stroke="black" points="798.5,-83.2 795,-73.2 791.5,-83.2 798.5,-83.2"/>
</g>
</g>
</svg>
